<svg width="858" height="755" viewBox="0 0 858 755" fill="none" xmlns="http://www.w3.org/2000/svg">
<rect width="858" height="755" fill="white"/>
<g opacity="0.55">
<path d="M641.234 313.863V337.215M641.234 337.215H588.156M641.234 337.215H694.311M614.695 337.215H667.773M614.695 337.215V360.568M614.695 337.215H570.063M667.773 337.215V360.568M667.773 337.215H686.172M667.773 360.568H614.695M667.773 360.568H706.075M614.695 360.568H588.156H641.234M656.316 383.921H641.234M641.234 383.921V360.568M641.234 383.921H598.195M641.234 360.568H694.311" stroke="#474747" stroke-width="6" stroke-miterlimit="10" stroke-linecap="round" stroke-linejoin="round"/>
</g>
<g opacity="0.55">
<path d="M571.411 254.042L525.461 213.608C518.748 207.7 518.748 198.123 525.461 192.216L571.411 151.782C578.124 145.875 589.007 145.875 595.72 151.782L641.671 192.216C648.384 198.123 648.384 207.7 641.671 213.608L595.72 254.042C589.007 259.949 578.124 259.949 571.411 254.042Z" stroke="#333333" stroke-width="10" stroke-miterlimit="10" stroke-linecap="round" stroke-linejoin="round"/>
<path d="M583.566 162.299V154.951M583.566 250.873V243.525M629.72 202.912H638.07M529.062 202.912H537.412" stroke="#333333" stroke-width="6" stroke-miterlimit="10" stroke-linecap="round" stroke-linejoin="round"/>
<path d="M583.566 202.912L570.173 191.95" stroke="#333333" stroke-width="8" stroke-miterlimit="10" stroke-linecap="round" stroke-linejoin="round"/>
<path d="M603.575 179.636L583.566 204.262" stroke="#333333" stroke-width="5" stroke-miterlimit="10" stroke-linecap="round" stroke-linejoin="round"/>
<path d="M584.607 208.68C588.228 208.68 591.163 206.098 591.163 202.912C591.163 199.725 588.228 197.143 584.607 197.143C580.986 197.143 578.051 199.725 578.051 202.912C578.051 206.098 580.986 208.68 584.607 208.68Z" fill="#333333"/>
</g>
<g opacity="0.55">
<path d="M205.893 199.38H293.487V276.088H205.893V199.38ZM309.693 143.71H375.804V220.418H309.693V143.71Z" stroke="#333333" stroke-width="10" stroke-miterlimit="10" stroke-linecap="round" stroke-linejoin="round"/>
<path d="M223.049 239.746L246.516 219.097M244.153 237.734L265.332 219.097M227.701 252.211L236.333 244.615M329.299 179.448L345.314 165.354M353.266 176.024L359.443 170.588M326.725 199.38L346.402 182.064" stroke="#333333" stroke-width="4" stroke-miterlimit="10" stroke-linecap="round" stroke-linejoin="round"/>
</g>
<path d="M650.65 566.917H667.238M681.824 566.917H685.971M206.778 566.917H634.92M167.729 566.917H187.902" stroke="#342943" stroke-width="10" stroke-miterlimit="10" stroke-linecap="round" stroke-linejoin="round"/>
<path d="M325.332 290.833C325.332 284.887 330.809 280.066 337.567 280.066C344.323 280.066 349.802 284.886 349.802 290.833H325.332Z" fill="#E2CCFF"/>
<path d="M325.332 290.833C325.332 284.887 330.809 280.066 337.567 280.066C344.323 280.066 349.802 284.886 349.802 290.833H325.332Z" stroke="#342943" stroke-width="8" stroke-miterlimit="10" stroke-linecap="round" stroke-linejoin="round"/>
<path d="M508.199 290.833C508.199 284.887 513.677 280.066 520.434 280.066C527.191 280.066 532.669 284.886 532.669 290.833H508.199Z" fill="#E2CCFF"/>
<path d="M508.199 290.833C508.199 284.887 513.677 280.066 520.434 280.066C527.191 280.066 532.669 284.886 532.669 290.833H508.199Z" stroke="#342943" stroke-width="8" stroke-miterlimit="10" stroke-linecap="round" stroke-linejoin="round"/>
<path d="M525.412 300.089C507.466 300.089 492.961 294.067 484.507 282.797L478.999 276.33C467.645 262.999 449.342 255.04 430.038 255.04H427.962C408.657 255.04 390.354 262.999 379.001 276.329L373.492 282.797C362.942 296.862 342.96 302.755 318.635 298.964L320.431 290.043C332.267 291.887 353.794 292.738 364.97 277.712L365.158 277.475L370.761 270.896C384.049 255.295 405.432 245.981 427.962 245.981H430.038C452.567 245.981 473.95 255.296 487.237 270.897L493.03 277.712C504.203 292.738 525.73 291.887 537.569 290.044L539.363 298.965C534.53 299.718 529.863 300.089 525.412 300.089Z" fill="#7349AD"/>
<path d="M525.412 300.089C507.466 300.089 492.961 294.067 484.507 282.797L478.999 276.33C467.645 262.999 449.342 255.04 430.038 255.04H427.962C408.657 255.04 390.354 262.999 379.001 276.329L373.492 282.797C362.942 296.862 342.96 302.755 318.635 298.964L320.431 290.043C332.267 291.887 353.794 292.738 364.97 277.712L365.158 277.475L370.761 270.896C384.049 255.295 405.432 245.981 427.962 245.981H430.038C452.567 245.981 473.95 255.296 487.237 270.897L493.03 277.712C504.203 292.738 525.73 291.887 537.569 290.044L539.363 298.965C534.53 299.718 529.863 300.089 525.412 300.089Z" stroke="#342943" stroke-width="10" stroke-miterlimit="10" stroke-linecap="round" stroke-linejoin="round"/>
<path d="M259.116 420.314H242.901L224.51 526.763C224.51 526.763 237.488 521.417 241.814 521.417C255.684 521.417 259.116 526.763 259.116 526.763V420.314Z" fill="#9445FF"/>
<path d="M259.116 420.314H242.901L224.51 526.763C224.51 526.763 237.488 521.417 241.814 521.417C255.684 521.417 259.116 526.763 259.116 526.763V420.314Z" stroke="#342943" stroke-width="10" stroke-miterlimit="10" stroke-linecap="round" stroke-linejoin="round"/>
<path d="M259.116 420.314H242.901L224.51 526.763C224.51 526.763 237.488 521.417 241.814 521.417C255.684 521.417 259.116 526.763 259.116 526.763V420.314Z" stroke="#342943" stroke-width="10" stroke-miterlimit="10" stroke-linecap="round" stroke-linejoin="round"/>
<path d="M256.757 420.314H242.901L224.51 526.763C224.51 526.763 233.743 522.96 239.229 521.769L256.757 420.314Z" fill="#7349AD"/>
<path d="M256.757 420.314H242.901L224.51 526.763C224.51 526.763 233.743 522.96 239.229 521.769L256.757 420.314Z" stroke="#342943" stroke-width="10" stroke-miterlimit="10" stroke-linecap="round" stroke-linejoin="round"/>
<path d="M598.884 420.314H615.099L633.49 526.763C633.49 526.763 620.512 521.417 616.186 521.417C602.316 521.417 598.884 526.763 598.884 526.763V420.314Z" fill="#9445FF"/>
<path d="M598.884 420.314H615.099L633.49 526.763C633.49 526.763 620.512 521.417 616.186 521.417C602.316 521.417 598.884 526.763 598.884 526.763V420.314Z" stroke="#342943" stroke-width="10" stroke-miterlimit="10" stroke-linecap="round" stroke-linejoin="round"/>
<path d="M598.884 420.314H615.099L633.49 526.763C633.49 526.763 620.512 521.417 616.186 521.417C602.316 521.417 598.884 526.763 598.884 526.763V420.314Z" stroke="#342943" stroke-width="10" stroke-miterlimit="10" stroke-linecap="round" stroke-linejoin="round"/>
<path d="M601.243 420.314H615.099L633.49 526.763C633.49 526.763 624.257 522.96 618.771 521.769L601.243 420.314Z" fill="#7349AD"/>
<path d="M601.243 420.314H615.099L633.49 526.763C633.49 526.763 624.257 522.96 618.771 521.769L601.243 420.314Z" stroke="#342943" stroke-width="10" stroke-miterlimit="10" stroke-linecap="round" stroke-linejoin="round"/>
<path d="M579.865 566.501H277.849C266.476 566.501 257.257 558.389 257.257 548.381V359.631H600.457V548.381C600.457 558.389 591.238 566.501 579.865 566.501Z" fill="#7349AD"/>
<path opacity="0.48" d="M477.048 517.201H380.952C373.37 517.201 367.224 511.793 367.224 505.121V474.406H490.776V505.121C490.776 511.793 484.63 517.201 477.048 517.201Z" fill="#7349AD" stroke="#7349AD" stroke-width="10" stroke-miterlimit="10"/>
<path d="M439.236 512.422C439.236 517.397 434.653 521.43 429 521.43C423.347 521.43 418.764 517.397 418.764 512.422H411.067C411.067 521.137 419.096 528.203 429 528.203C438.904 528.203 446.933 521.137 446.933 512.422H439.236Z" fill="white"/>
<path d="M439.236 512.422C439.236 517.397 434.653 521.43 429 521.43C423.347 521.43 418.764 517.397 418.764 512.422H411.067C411.067 521.137 419.096 528.203 429 528.203C438.904 528.203 446.933 521.137 446.933 512.422H439.236Z" stroke="#342943" stroke-width="4" stroke-miterlimit="10" stroke-linecap="round" stroke-linejoin="round"/>
<path opacity="0.48" d="M580.008 557.943H277.992C266.619 557.943 257.4 549.83 257.4 539.823V548.759C257.4 558.766 266.619 566.879 277.992 566.879H580.008C591.381 566.879 600.6 558.766 600.6 548.759V539.823C600.6 549.83 591.381 557.943 580.008 557.943Z" fill="#7349AD"/>
<path d="M600.6 445.39V363.029H257.4V445.39C262.146 447.368 267.149 448.827 272.298 449.736C317.023 457.648 365.938 461.334 426.236 461.334H431.763C492.059 461.334 540.973 457.649 585.7 449.736C590.849 448.828 595.853 447.368 600.6 445.39Z" fill="#5C3493"/>
<path d="M477.048 511.916H380.952C373.37 511.916 367.224 506.507 367.224 499.836V469.121H490.776V499.836C490.776 506.507 484.63 511.916 477.048 511.916Z" fill="#9445FF"/>
<path opacity="0.45" d="M367.224 485.87C371.921 489.802 378.264 492.222 385.242 492.222H472.758C479.736 492.222 486.079 489.802 490.776 485.87V472.142H367.224V485.87Z" fill="#9445FF"/>
<path d="M387.53 503.611H380.952C378.113 503.611 375.804 501.579 375.804 499.081V475.916M482.196 491.467V499.081C482.196 501.58 479.887 503.611 477.048 503.611H396.396" stroke="#342943" stroke-width="3" stroke-miterlimit="10" stroke-linecap="round" stroke-linejoin="round" stroke-dasharray="5 7"/>
<path d="M477.048 511.916H380.952C373.37 511.916 367.224 506.507 367.224 499.836V469.121H490.776V499.836C490.776 506.507 484.63 511.916 477.048 511.916Z" stroke="#342943" stroke-width="10" stroke-miterlimit="10" stroke-linecap="round" stroke-linejoin="round"/>
<path d="M472.758 484.671H385.242C373.633 484.671 364.221 476.39 364.221 466.174V447.68H493.779V466.174C493.779 476.39 484.368 484.671 472.758 484.671Z" fill="#AB7AED"/>
<path opacity="0.84" d="M364.221 459.823C383.603 460.839 404.154 461.335 426.236 461.335H431.763C453.845 461.335 474.396 460.839 493.778 459.824V447.681H364.22V459.823H364.221Z" fill="#AB7AED"/>
<path d="M472.758 484.671H385.242C373.633 484.671 364.221 476.39 364.221 466.174V447.68H493.779V466.174C493.779 476.39 484.368 484.671 472.758 484.671Z" stroke="#342943" stroke-width="10" stroke-miterlimit="10" stroke-linecap="round" stroke-linejoin="round"/>
<path d="M372.801 465.317V451.113H485.199V465.317C485.199 471.363 479.629 476.265 472.758 476.265H385.242C378.371 476.265 372.801 471.363 372.801 465.317Z" stroke="#342943" stroke-width="3" stroke-miterlimit="10" stroke-linecap="round" stroke-linejoin="round" stroke-dasharray="5 7"/>
<path d="M580.008 566.879H277.992C266.619 566.879 257.4 558.767 257.4 548.759V360.009H600.6V548.759C600.6 558.767 591.381 566.879 580.008 566.879Z" stroke="#342943" stroke-width="10" stroke-miterlimit="10" stroke-linecap="round" stroke-linejoin="round"/>
<path d="M277.992 554.799C274.207 554.799 271.128 552.089 271.128 548.759V372.089H586.872V548.759C586.872 552.089 583.793 554.799 580.008 554.799H277.992Z" stroke="#342943" stroke-width="4" stroke-miterlimit="10" stroke-linecap="round" stroke-linejoin="round" stroke-dasharray="7 9"/>
<path d="M244.998 316.473L233.407 390.851C229.816 413.89 246.645 434.477 273.989 439.315C324.444 448.241 376.618 450.86 429 450.762C481.382 450.859 533.556 448.24 584.01 439.314C611.355 434.476 628.183 413.889 624.592 390.85L613.001 316.472C611.542 307.114 600.963 299.485 588.886 298.978C482.356 294.497 375.643 294.497 269.113 298.978C257.036 299.487 246.457 307.115 244.998 316.473Z" fill="#9445FF"/>
<path opacity="0.55" d="M624.593 390.851L613.002 316.473C611.543 307.115 600.964 299.486 588.887 298.979C482.357 294.498 375.644 294.498 269.114 298.979C257.037 299.487 246.458 307.116 244.999 316.473L233.408 390.851C229.817 413.89 246.646 434.477 273.99 439.315C324.444 448.241 376.618 450.86 429 450.762C481.382 450.859 533.556 448.24 584.01 439.314C611.355 434.477 628.183 413.89 624.593 390.851ZM583.975 439.531C539.909 447.661 491.552 451.446 431.79 451.446H426.21C366.446 451.446 318.088 447.661 274.026 439.531C250.781 435.244 236.151 417.143 239.238 396.493L250.942 318.187C251.896 311.805 259.52 306.312 267.938 305.943C321.437 303.601 375.626 302.413 429.001 302.413C482.375 302.413 536.564 303.601 590.064 305.943C598.481 306.312 606.106 311.805 607.06 318.187L618.763 396.493C621.848 417.144 607.219 435.244 583.975 439.531Z" fill="#9445FF"/>
<path opacity="0.45" d="M584.01 432.099C533.556 441.025 481.382 443.643 429 443.547C376.618 443.643 324.444 441.025 273.99 432.099C250.561 427.954 234.865 412.244 233.106 393.338C231.055 415.356 247.634 434.651 273.99 439.315C324.444 448.241 376.618 450.86 429 450.762C481.382 450.859 533.556 448.241 584.01 439.314C610.367 434.651 626.945 415.356 624.894 393.337C623.135 412.243 607.44 427.954 584.01 432.099Z" fill="#9445FF"/>
<path d="M244.998 316.473L233.407 390.851C229.816 413.89 246.645 434.477 273.989 439.315C324.444 448.241 376.618 450.86 429 450.762C481.382 450.859 533.556 448.24 584.01 439.314C611.355 434.476 628.183 413.889 624.592 390.85L613.001 316.472C611.542 307.114 600.963 299.485 588.886 298.978C482.356 294.497 375.643 294.497 269.113 298.978C257.036 299.487 246.457 307.115 244.998 316.473Z" stroke="#342943" stroke-width="10" stroke-miterlimit="10" stroke-linecap="round" stroke-linejoin="round"/>
<path d="M426.237 438.684C367.454 438.684 319.935 435.121 276.695 427.47C256.561 423.909 244.353 409.525 247.008 392.491L258.599 318.113C259.089 314.971 263.796 311.296 269.768 311.045C322.808 308.82 375.9 307.704 429 307.697C481.768 307.697 535.34 308.823 588.232 311.045C594.203 311.296 598.91 314.972 599.401 318.114L610.993 392.491C613.647 409.525 601.439 423.909 581.304 427.47C538.063 435.122 490.545 438.684 431.763 438.684H426.237Z" stroke="#342943" stroke-width="4" stroke-linecap="round" stroke-linejoin="round" stroke-dasharray="7.01 9.01"/>
<path d="M330.799 577.728C322.27 577.728 315.355 571.644 315.355 564.138V373.191H346.243V564.138C346.243 571.644 339.33 577.728 330.799 577.728Z" fill="#AB7AED"/>
<path d="M315.355 373.191H346.243V382.984H315.355V373.191Z" fill="#342943"/>
<path opacity="0.78" d="M315.355 425.973H346.243V439.563H315.355V425.973Z" fill="#AB7AED"/>
<path d="M330.799 577.728C322.27 577.728 315.355 571.644 315.355 564.138V373.191H346.243V564.138C346.243 571.644 339.33 577.728 330.799 577.728Z" stroke="#342943" stroke-width="10" stroke-miterlimit="10" stroke-linecap="round" stroke-linejoin="round"/>
<path d="M305.06 416.913V458.438H315.355V425.973H346.243V458.438H356.54V416.913H305.06Z" fill="white"/>
<path d="M348.144 416.913H313.456C308.819 416.913 305.06 420.221 305.06 424.302V451.051C305.06 453.01 305.944 454.889 307.519 456.275C309.093 457.661 311.229 458.439 313.456 458.439H315.356V425.974H346.244V458.439H348.143C352.78 458.439 356.54 455.131 356.54 451.051V424.302C356.54 420.222 352.781 416.913 348.144 416.913Z" stroke="#342943" stroke-width="8" stroke-miterlimit="10" stroke-linecap="round" stroke-linejoin="round"/>
<path d="M330.8 406.343C333.406 406.343 335.519 404.484 335.519 402.191C335.519 399.897 333.406 398.038 330.8 398.038C328.193 398.038 326.081 399.897 326.081 402.191C326.081 404.484 328.193 406.343 330.8 406.343Z" fill="white"/>
<path d="M330.8 406.343C333.406 406.343 335.519 404.484 335.519 402.191C335.519 399.897 333.406 398.038 330.8 398.038C328.193 398.038 326.081 399.897 326.081 402.191C326.081 404.484 328.193 406.343 330.8 406.343Z" stroke="#342943" stroke-width="4" stroke-miterlimit="10" stroke-linecap="round" stroke-linejoin="round"/>
<path d="M330.8 446.997C333.406 446.997 335.519 445.138 335.519 442.844C335.519 440.551 333.406 438.692 330.8 438.692C328.193 438.692 326.081 440.551 326.081 442.844C326.081 445.138 328.193 446.997 330.8 446.997Z" fill="white"/>
<path d="M330.8 448.1C333.406 448.1 335.519 446.241 335.519 443.947C335.519 441.654 333.406 439.795 330.8 439.795C328.194 439.795 326.081 441.654 326.081 443.947C326.081 446.241 328.194 448.1 330.8 448.1Z" stroke="#342943" stroke-width="4" stroke-miterlimit="10" stroke-linecap="round" stroke-linejoin="round"/>
<path d="M330.8 501.851C333.406 501.851 335.519 499.992 335.519 497.698C335.519 495.405 333.406 493.546 330.8 493.546C328.193 493.546 326.081 495.405 326.081 497.698C326.081 499.992 328.193 501.851 330.8 501.851Z" fill="#7349AD"/>
<path d="M330.8 501.851C333.406 501.851 335.519 499.992 335.519 497.698C335.519 495.405 333.406 493.546 330.8 493.546C328.193 493.546 326.081 495.405 326.081 497.698C326.081 499.992 328.193 501.851 330.8 501.851Z" stroke="#342943" stroke-width="4" stroke-miterlimit="10" stroke-linecap="round" stroke-linejoin="round"/>
<path d="M330.8 528.714C333.406 528.714 335.519 526.855 335.519 524.561C335.519 522.268 333.406 520.409 330.8 520.409C328.193 520.409 326.081 522.268 326.081 524.561C326.081 526.855 328.193 528.714 330.8 528.714Z" fill="#7349AD"/>
<path d="M330.8 528.714C333.406 528.714 335.519 526.855 335.519 524.561C335.519 522.268 333.406 520.409 330.8 520.409C328.193 520.409 326.081 522.268 326.081 524.561C326.081 526.855 328.193 528.714 330.8 528.714Z" stroke="#342943" stroke-width="4" stroke-miterlimit="10" stroke-linecap="round" stroke-linejoin="round"/>
<path d="M330.8 446.997C330.351 446.997 329.906 446.919 329.491 446.768C329.076 446.617 328.698 446.395 328.381 446.115C328.063 445.836 327.811 445.504 327.639 445.138C327.467 444.773 327.378 444.381 327.378 443.986V419.925C327.378 419.126 327.739 418.361 328.381 417.796C329.022 417.231 329.893 416.914 330.8 416.914C331.708 416.914 332.578 417.231 333.22 417.796C333.861 418.361 334.222 419.126 334.222 419.925V443.986C334.222 444.785 333.861 445.55 333.219 446.115C332.578 446.68 331.708 446.997 330.8 446.997Z" fill="white"/>
<path d="M330.8 446.997C330.351 446.997 329.906 446.919 329.491 446.768C329.076 446.617 328.698 446.395 328.381 446.115C328.063 445.836 327.811 445.504 327.639 445.138C327.467 444.773 327.378 444.381 327.378 443.986V419.925C327.378 419.126 327.739 418.361 328.381 417.796C329.022 417.231 329.893 416.914 330.8 416.914C331.708 416.914 332.578 417.231 333.22 417.796C333.861 418.361 334.222 419.126 334.222 419.925V443.986C334.222 444.785 333.861 445.55 333.219 446.115C332.578 446.68 331.708 446.997 330.8 446.997Z" stroke="#342943" stroke-width="4" stroke-miterlimit="10" stroke-linecap="round" stroke-linejoin="round"/>
<path d="M527.2 577.728C518.67 577.728 511.756 571.644 511.756 564.138V373.191H542.644V564.138C542.644 571.644 535.729 577.728 527.2 577.728Z" fill="#AB7AED"/>
<path opacity="0.78" d="M510.765 426.205H541.653V439.795H510.765V426.205Z" fill="#AB7AED"/>
<path d="M527.2 577.728C518.67 577.728 511.756 571.644 511.756 564.138V373.191H542.644V564.138C542.644 571.644 535.729 577.728 527.2 577.728Z" stroke="#342943" stroke-width="10" stroke-miterlimit="10" stroke-linecap="round" stroke-linejoin="round"/>
<path d="M501.46 416.913V458.438H511.756V425.973H542.644V458.438H552.94V416.913H501.46Z" fill="white"/>
<path d="M544.544 416.913H509.856C505.22 416.913 501.46 420.221 501.46 424.302V451.051C501.46 453.01 502.345 454.889 503.919 456.275C505.494 457.661 507.629 458.439 509.856 458.439H511.756V425.974H542.644V458.439H544.544C549.18 458.439 552.94 455.131 552.94 451.051V424.302C552.94 420.222 549.181 416.913 544.544 416.913Z" stroke="#342943" stroke-width="8" stroke-miterlimit="10" stroke-linecap="round" stroke-linejoin="round"/>
<path d="M527.2 406.343C529.806 406.343 531.919 404.484 531.919 402.191C531.919 399.897 529.806 398.038 527.2 398.038C524.594 398.038 522.481 399.897 522.481 402.191C522.481 404.484 524.594 406.343 527.2 406.343Z" fill="white"/>
<path d="M527.2 406.343C529.806 406.343 531.919 404.484 531.919 402.191C531.919 399.897 529.806 398.038 527.2 398.038C524.594 398.038 522.481 399.897 522.481 402.191C522.481 404.484 524.594 406.343 527.2 406.343Z" stroke="#342943" stroke-width="4" stroke-miterlimit="10" stroke-linecap="round" stroke-linejoin="round"/>
<path d="M527.2 446.997C529.806 446.997 531.919 445.138 531.919 442.844C531.919 440.551 529.806 438.692 527.2 438.692C524.594 438.692 522.481 440.551 522.481 442.844C522.481 445.138 524.594 446.997 527.2 446.997Z" fill="white"/>
<path d="M527.2 448.1C529.806 448.1 531.919 446.241 531.919 443.947C531.919 441.654 529.806 439.795 527.2 439.795C524.594 439.795 522.481 441.654 522.481 443.947C522.481 446.241 524.594 448.1 527.2 448.1Z" stroke="#342943" stroke-width="4" stroke-miterlimit="10" stroke-linecap="round" stroke-linejoin="round"/>
<path d="M527.2 501.851C529.806 501.851 531.919 499.992 531.919 497.698C531.919 495.405 529.806 493.546 527.2 493.546C524.594 493.546 522.481 495.405 522.481 497.698C522.481 499.992 524.594 501.851 527.2 501.851Z" fill="#7349AD"/>
<path d="M527.2 501.851C529.806 501.851 531.919 499.992 531.919 497.698C531.919 495.405 529.806 493.546 527.2 493.546C524.594 493.546 522.481 495.405 522.481 497.698C522.481 499.992 524.594 501.851 527.2 501.851Z" stroke="#342943" stroke-width="4" stroke-miterlimit="10" stroke-linecap="round" stroke-linejoin="round"/>
<path d="M527.2 528.714C529.806 528.714 531.919 526.855 531.919 524.561C531.919 522.268 529.806 520.409 527.2 520.409C524.594 520.409 522.481 522.268 522.481 524.561C522.481 526.855 524.594 528.714 527.2 528.714Z" fill="#7349AD"/>
<path d="M527.2 528.714C529.806 528.714 531.919 526.855 531.919 524.561C531.919 522.268 529.806 520.409 527.2 520.409C524.594 520.409 522.481 522.268 522.481 524.561C522.481 526.855 524.594 528.714 527.2 528.714Z" stroke="#342943" stroke-width="4" stroke-miterlimit="10" stroke-linecap="round" stroke-linejoin="round"/>
<path d="M527.2 446.997C526.751 446.997 526.306 446.919 525.891 446.768C525.475 446.617 525.098 446.395 524.781 446.115C524.463 445.836 524.211 445.504 524.039 445.138C523.867 444.773 523.778 444.381 523.778 443.986V419.925C523.778 419.126 524.139 418.361 524.781 417.796C525.422 417.231 526.293 416.914 527.2 416.914C528.108 416.914 528.978 417.231 529.62 417.796C530.261 418.361 530.622 419.126 530.622 419.925V443.986C530.622 444.382 530.533 444.773 530.362 445.138C530.19 445.504 529.938 445.836 529.62 446.115C529.302 446.395 528.925 446.617 528.51 446.768C528.094 446.919 527.649 446.997 527.2 446.997Z" fill="white"/>
<path d="M527.2 446.997C526.751 446.997 526.306 446.919 525.891 446.768C525.475 446.617 525.098 446.395 524.781 446.115C524.463 445.836 524.211 445.504 524.039 445.138C523.867 444.773 523.778 444.381 523.778 443.986V419.925C523.778 419.126 524.139 418.361 524.781 417.796C525.422 417.231 526.293 416.914 527.2 416.914C528.108 416.914 528.978 417.231 529.62 417.796C530.261 418.361 530.622 419.126 530.622 419.925V443.986C530.622 444.382 530.533 444.773 530.362 445.138C530.19 445.504 529.938 445.836 529.62 446.115C529.302 446.395 528.925 446.617 528.51 446.768C528.094 446.919 527.649 446.997 527.2 446.997Z" stroke="#342943" stroke-width="4" stroke-miterlimit="10" stroke-linecap="round" stroke-linejoin="round"/>
<path d="M511.756 373.191H542.644V382.984H511.756V373.191Z" fill="#342943"/>
<path opacity="0.84" d="M431.145 469.976C433.859 469.976 436.06 468.04 436.06 465.652C436.06 463.263 433.859 461.327 431.145 461.327C428.431 461.327 426.23 463.263 426.23 465.652C426.23 468.04 428.431 469.976 431.145 469.976Z" fill="#AB7AED"/>
<path d="M431.145 469.976C433.859 469.976 436.06 468.04 436.06 465.652C436.06 463.263 433.859 461.327 431.145 461.327C428.431 461.327 426.23 463.263 426.23 465.652C426.23 468.04 428.431 469.976 431.145 469.976Z" stroke="#342943" stroke-width="4" stroke-miterlimit="10" stroke-linecap="round" stroke-linejoin="round"/>
<path d="M452.151 385.968C452.321 383.991 451.056 382.134 449.009 381.306C443.407 379.043 437.315 377.875 431.151 377.882C424.982 377.875 418.886 379.045 413.281 381.311C411.233 382.14 409.969 383.997 410.139 385.973C411.13 397.439 417.951 407.468 428 413.776C428.917 414.352 430.017 414.662 431.145 414.662C432.272 414.662 433.372 414.352 434.29 413.776C444.339 407.467 451.161 397.435 452.151 385.968Z" fill="#AD71FF"/>
<path opacity="0.75" d="M434.29 405.458C433.372 406.034 432.272 406.344 431.145 406.344C430.017 406.344 428.917 406.034 428 405.458C419.545 400.151 413.39 392.203 411.056 382.988C410.375 383.863 410.052 384.916 410.139 385.973C411.13 397.439 417.951 407.468 428 413.776C428.917 414.352 430.017 414.662 431.145 414.662C432.272 414.662 433.372 414.352 434.29 413.776C444.339 407.468 451.161 397.435 452.15 385.968C452.237 384.911 451.914 383.859 451.234 382.984C448.9 392.201 442.745 400.15 434.29 405.458Z" fill="#AD71FF"/>
<path d="M452.151 385.968C452.321 383.991 451.056 382.134 449.009 381.306C443.407 379.043 437.315 377.875 431.151 377.882C424.982 377.875 418.886 379.045 413.281 381.311C411.233 382.14 409.969 383.997 410.139 385.973C411.13 397.439 417.951 407.468 428 413.776C428.917 414.352 430.017 414.662 431.145 414.662C432.272 414.662 433.372 414.352 434.29 413.776C444.339 407.467 451.161 397.435 452.151 385.968Z" stroke="#342943" stroke-width="5" stroke-miterlimit="10" stroke-linecap="round" stroke-linejoin="round"/>
<path d="M421.766 385.006C424.826 384.282 427.982 383.917 431.151 383.921C434.356 383.921 437.491 384.284 440.522 385.003C443.364 385.677 445.058 388.233 444.349 390.746C443.518 393.687 442.209 396.506 440.462 399.117" stroke="#342943" stroke-width="3" stroke-miterlimit="10" stroke-linecap="round" stroke-linejoin="round"/>
</svg>
