<svg xmlns="http://www.w3.org/2000/svg" viewBox="0 0 24 24" id="suitcase"><path d="M21.993 9.516c0-2.196-1.794-3.983-3.999-3.983H16.12v-.532c0-1.654-1.346-3-3-3h-2.249c-1.654 0-3 1.346-3 3v.531H5.997a4.004 4.004 0 0 0-3.999 3.999v4.01a1 1 0 0 0 2 0v-1.479l7.588 3.372a1.007 1.007 0 0 0 .812 0l7.598-3.375.006 5.939c0 1.103-.901 2-2.008 2H5.997a2.002 2.002 0 0 1-1.999-2v-1.046a1 1 0 0 0-2 0v1.046c0 2.206 1.794 4 3.999 4h11.997a4.008 4.008 0 0 0 4.008-4l-.009-8.482zM9.872 5.001c0-.551.448-1 1-1h2.249c.551 0 1 .448 1 1v.531H9.872v-.531zm2.12 8.425L3.998 9.874v-.342c0-1.102.897-1.999 1.999-1.999h11.997c1.102 0 1.999.89 1.999 1.984v.355l-8.001 3.554z" fill="#7e30e8" class="color000000 svgShape"></path></svg>