<svg xmlns="http://www.w3.org/2000/svg" fill-rule="evenodd" stroke-linejoin="round" stroke-miterlimit="2" clip-rule="evenodd" viewBox="0 0 24 24" id="Review"><path d="M8.686 13.3c0 0 .424-2.475.424-2.475.129-.752-.08-1.522-.572-2.105-.492-.583-1.216-.92-1.979-.92l0 0c-.509 0-.99.236-1.301.639l-3.425 4.44c-.54.7-.833 1.56-.833 2.444 0 1.481 0 4.208 0 5.677 0 .53.211 1.039.586 1.414.375.375.884.586 1.414.586l7.165 0c1.493 0 2.759-1.098 2.97-2.576l.529-3.7c.123-.861-.134-1.733-.704-2.39-.569-.657-1.396-1.034-2.266-1.034l-2.008 0zM15.314 10.7c0 0-.424 2.475-.424 2.475-.129.752.08 1.522.572 2.105.492.583 1.216.92 1.979.92l.316 0c.31 0 .603-.144.792-.389 0 0 2.438-3.161 3.618-4.69.54-.7.833-1.56.833-2.444l0-5.677c0-.53-.211-1.039-.586-1.414-.375-.375-.884-.586-1.414-.586l-7.165 0c-1.493 0-2.759 1.098-2.97 2.576l-.529 3.7c-.123.861.134 1.733.704 2.39.569.657 1.396 1.034 2.266 1.034l2.008 0z" fill="#5e6670" class="color000000 svgShape"></path></svg>