<svg width="25" height="23" viewBox="0 0 25 23" fill="none" xmlns="http://www.w3.org/2000/svg">
<path d="M24.8933 0.623224C25.0942 1.06001 25.0115 1.43288 24.645 1.74183L15.9042 9.62003V21.4773C15.9042 21.9247 15.6737 22.239 15.2127 22.4201C15.059 22.4734 14.9113 22.5 14.7694 22.5C14.4503 22.5 14.1843 22.3988 13.9716 22.1964L9.43271 18.1055C9.20814 17.9031 9.09585 17.6634 9.09585 17.3864V9.62003L0.354969 1.74183C-0.0114506 1.43288 -0.0941905 1.06001 0.106749 0.623224C0.307689 0.207741 0.656378 0 1.15282 0H23.8472C24.3436 0 24.6923 0.207741 24.8933 0.623224Z" fill="#9445FF"/>
</svg>
