<svg width="250" height="250" viewBox="0 0 250 250" fill="none" xmlns="http://www.w3.org/2000/svg">
<g filter="url(#filter0_d_353_2)">
<circle cx="125" cy="126" r="103" fill="white"/>
<circle cx="125" cy="126" r="102.5" stroke="#434955" stroke-opacity="0.16"/>
</g>
<g clip-path="url(#clip0_353_2)">
<path d="M155.743 118.143L147 114.646V96C147 95.4696 146.789 94.9609 146.414 94.5858C146.039 94.2107 145.53 94 145 94H105C104.47 94 103.961 94.2107 103.586 94.5858C103.211 94.9609 103 95.4696 103 96V114.646L94.257 118.143C93.8863 118.292 93.5686 118.548 93.3449 118.879C93.1213 119.21 93.0018 119.601 93.002 120H93V156C93 156.53 93.2107 157.039 93.5858 157.414C93.9609 157.789 94.4696 158 95 158H155C155.53 158 156.039 157.789 156.414 157.414C156.789 157.039 157 156.53 157 156V120H156.998C156.998 119.601 156.879 119.21 156.655 118.879C156.431 118.548 156.114 118.292 155.743 118.143ZM150.954 120.536L147 122.991V118.955L150.954 120.536ZM143 98V125.474L125 136.646L107 125.474V98H143ZM103 122.991L99.046 120.536L103 118.955V122.991ZM97 154V123.975L123.945 140.7C124.262 140.896 124.627 141 125 140.999C125.373 140.999 125.738 140.895 126.055 140.699L153 123.975V154H97Z" fill="#696D77"/>
<path d="M129 106H137C137.53 106 138.039 105.789 138.414 105.414C138.789 105.039 139 104.53 139 104C139 103.47 138.789 102.961 138.414 102.586C138.039 102.211 137.53 102 137 102H129C128.47 102 127.961 102.211 127.586 102.586C127.211 102.961 127 103.47 127 104C127 104.53 127.211 105.039 127.586 105.414C127.961 105.789 128.47 106 129 106ZM113 114H137C137.53 114 138.039 113.789 138.414 113.414C138.789 113.039 139 112.53 139 112C139 111.47 138.789 110.961 138.414 110.586C138.039 110.211 137.53 110 137 110H113C112.47 110 111.961 110.211 111.586 110.586C111.211 110.961 111 111.47 111 112C111 112.53 111.211 113.039 111.586 113.414C111.961 113.789 112.47 114 113 114ZM113 122H137C137.53 122 138.039 121.789 138.414 121.414C138.789 121.039 139 120.53 139 120C139 119.47 138.789 118.961 138.414 118.586C138.039 118.211 137.53 118 137 118H113C112.47 118 111.961 118.211 111.586 118.586C111.211 118.961 111 119.47 111 120C111 120.53 111.211 121.039 111.586 121.414C111.961 121.789 112.47 122 113 122Z" fill="#696D77"/>
</g>
<defs>
<filter id="filter0_d_353_2" x="0" y="0" width="250" height="250" filterUnits="userSpaceOnUse" color-interpolation-filters="sRGB">
<feFlood flood-opacity="0" result="BackgroundImageFix"/>
<feColorMatrix in="SourceAlpha" type="matrix" values="0 0 0 0 0 0 0 0 0 0 0 0 0 0 0 0 0 0 127 0" result="hardAlpha"/>
<feMorphology radius="1" operator="dilate" in="SourceAlpha" result="effect1_dropShadow_353_2"/>
<feOffset dy="-1"/>
<feGaussianBlur stdDeviation="10.5"/>
<feComposite in2="hardAlpha" operator="out"/>
<feColorMatrix type="matrix" values="0 0 0 0 0 0 0 0 0 0 0 0 0 0 0 0 0 0 0.15 0"/>
<feBlend mode="normal" in2="BackgroundImageFix" result="effect1_dropShadow_353_2"/>
<feBlend mode="normal" in="SourceGraphic" in2="effect1_dropShadow_353_2" result="shape"/>
</filter>
<clipPath id="clip0_353_2">
<rect width="64" height="64" fill="white" transform="translate(93 94)"/>
</clipPath>
</defs>
</svg>
