<svg width="375" height="370" viewBox="0 0 375 370" fill="none" xmlns="http://www.w3.org/2000/svg">
<path opacity="0.1" d="M187.501 369.484C250.17 369.484 300.973 365.232 300.973 359.986C300.973 354.74 250.17 350.487 187.501 350.487C124.832 350.487 74.0293 354.74 74.0293 359.986C74.0293 365.232 124.832 369.484 187.501 369.484Z" fill="#472D70"/>
<path d="M77.6665 219.31C75.6266 214.895 75.0053 209.978 75.6663 204.699C72.6108 202.659 69.6375 200.599 66.7352 198.522C57.3218 214.611 54.5528 229.608 60.1333 241.691C72.8264 269.177 124.946 273.58 187.504 256.092C169.582 251.082 150.812 244.276 131.855 235.694C104.403 238.65 84.3705 233.827 77.6665 219.31Z" fill="url(#paint0_linear_72_1577)"/>
<path d="M179.268 108.2C140.147 127.144 107.666 150.411 86.0698 173.343C87.1649 174.069 88.2828 174.792 89.4006 175.516C106.69 152.657 138.84 127.89 179.268 108.2Z" fill="url(#paint1_linear_72_1577)"/>
<path d="M187.501 222.521C167.151 229.401 148.185 233.929 131.852 235.691C150.809 244.273 169.579 251.082 187.501 256.089C205.423 251.079 224.193 244.273 243.15 235.691C226.817 233.932 207.851 229.401 187.501 222.521Z" fill="url(#paint2_linear_72_1577)"/>
<path d="M89.4005 175.513C88.2826 174.79 87.1648 174.066 86.0697 173.34C78.0493 181.86 71.524 190.329 66.7322 198.519C69.6345 200.593 72.6106 202.656 75.6633 204.696C76.7811 195.796 81.5843 185.849 89.4005 175.513Z" fill="url(#paint3_linear_72_1577)"/>
<path d="M285.599 175.513C286.72 174.79 287.838 174.067 288.93 173.34C267.334 150.408 234.852 127.141 195.732 108.198C236.163 127.89 268.31 152.658 285.599 175.513Z" fill="url(#paint4_linear_72_1577)"/>
<path d="M308.267 198.519C305.362 200.593 302.389 202.656 299.333 204.696C299.994 209.976 299.373 214.895 297.333 219.307C290.629 233.824 270.596 238.647 243.148 235.691C226.815 233.932 207.849 229.401 187.498 222.521C173.123 217.658 158.067 211.638 142.743 204.562C123.114 195.498 105.075 185.642 89.4006 175.514C88.2828 174.79 87.165 174.067 86.0699 173.34C45.1223 146.189 21.6312 117.322 31.2745 96.4384C44.3563 68.1159 110.855 70.7571 181.742 101.738C98.1331 64.9695 18.9332 62.8134 2.86678 97.6017C-9.20216 123.74 17.7359 163.484 66.7323 198.519C69.6347 200.593 72.6108 202.656 75.6635 204.696C91.5908 215.326 109.51 225.412 128.964 234.397C129.925 234.84 130.887 235.257 131.849 235.691C150.806 244.273 169.577 251.082 187.498 256.089C250.053 273.577 302.173 269.174 314.866 241.688C320.45 229.605 317.681 214.609 308.267 198.519Z" fill="url(#paint5_linear_72_1577)"/>
<path opacity="0.3" d="M105.47 185.304C99.8893 182.079 94.5073 178.813 89.4006 175.514C88.2828 174.79 87.165 174.067 86.0699 173.34C45.1223 146.189 21.6312 117.322 31.2745 96.4384C44.3563 68.1159 110.855 70.7571 181.742 101.738C98.1331 64.9695 18.9332 62.8134 2.86678 97.6017C-9.20216 123.74 17.7359 163.484 66.7323 198.519C69.6347 200.593 72.6107 202.656 75.6634 204.696C91.5908 215.326 109.51 225.412 128.964 234.397C129.925 234.84 130.887 235.257 131.849 235.691C145.249 241.757 158.537 246.889 171.514 251.173C145.702 233.461 121.871 212.294 105.47 185.304Z" fill="url(#paint6_linear_72_1577)"/>
<path d="M285.599 175.513C293.415 185.849 298.218 195.796 299.336 204.696C302.392 202.656 305.365 200.596 308.27 198.519C303.478 190.329 296.953 181.86 288.933 173.34C287.835 174.066 286.717 174.79 285.599 175.513Z" fill="url(#paint7_linear_72_1577)"/>
<path d="M372.133 97.6017C356.067 62.8134 276.867 64.9695 193.258 101.738C264.145 70.7571 330.644 68.113 343.725 96.4384C353.369 117.322 329.878 146.189 288.933 173.34C287.838 174.067 286.72 174.79 285.602 175.514C269.93 185.642 251.892 195.498 232.259 204.562C216.936 211.638 201.88 217.658 187.504 222.521C207.855 229.401 226.821 233.929 243.154 235.691C244.115 235.257 245.074 234.84 246.039 234.397C265.493 225.412 283.412 215.326 299.339 204.696C302.395 202.656 305.368 200.596 308.273 198.519C357.264 163.484 384.202 123.74 372.133 97.6017Z" fill="url(#paint8_linear_72_1577)"/>
<path opacity="0.3" d="M372.133 97.6017C356.066 62.8134 276.866 64.9695 193.258 101.738C264.145 70.7571 330.643 68.113 343.725 96.4384C352.344 115.098 334.453 140.132 301.345 164.625C290.501 189.951 272.75 212.665 252.201 231.404C269.257 223.185 285.125 214.183 299.336 204.696C302.392 202.656 305.365 200.596 308.27 198.519C357.264 163.484 384.202 123.74 372.133 97.6017Z" fill="url(#paint9_linear_72_1577)"/>
<path d="M193.28 270.51C227.896 274.031 254.695 285.178 253.775 295.939C252.822 307.052 222.854 311.154 186.588 308.048C150.318 304.938 121.485 295.803 122.438 284.687C123.361 273.929 151.666 267.5 186.375 269.923C145.399 266.992 111.848 274.973 110.716 288.188C109.552 301.772 143.087 315.739 185.617 319.382C228.148 323.027 263.569 314.967 264.732 301.383C265.864 288.168 234.16 274.595 193.28 270.51Z" fill="url(#paint10_linear_72_1577)"/>
<path d="M187.722 79.5234C209.682 79.5234 227.484 61.7214 227.484 39.7617C227.484 17.8019 209.682 0 187.722 0C165.762 0 147.96 17.8019 147.96 39.7617C147.96 61.7214 165.762 79.5234 187.722 79.5234Z" fill="url(#paint11_linear_72_1577)"/>
<path opacity="0.4" d="M207.865 47.0357C201.521 62.8496 184.218 70.7906 169.218 64.7731C154.216 58.7557 147.2 41.058 153.544 25.2441C159.887 9.43021 177.191 1.48918 192.193 7.50663C207.193 13.5241 214.209 31.2247 207.865 47.0357Z" fill="url(#paint12_linear_72_1577)"/>
<path d="M192.673 100.016L196.634 92.9346C197.153 92.0069 196.679 90.8352 195.652 90.5543C193.768 90.0408 190.775 89.3911 187.722 89.3911C184.67 89.3911 181.677 90.0408 179.793 90.5543C178.766 90.8352 178.292 92.0069 178.811 92.9346L182.772 100.016H184.463L177.821 123.365L187.722 160.854L197.624 123.365L190.982 100.016H192.673Z" fill="url(#paint13_linear_72_1577)"/>
<path d="M254.516 102.501C248.141 100.129 232.239 94.4892 212.975 91.377C202.22 100.949 187.722 168.177 187.722 187.336C187.722 168.177 172.084 100.949 162.469 91.377C143.206 94.4892 127.304 100.129 120.929 102.501C114.114 105.035 99.8068 180.657 104.681 184.822C116.151 194.618 183.126 222.524 187.487 222.524C191.847 222.524 259.288 194.618 270.761 184.822C275.638 180.654 261.33 105.035 254.516 102.501Z" fill="url(#paint14_linear_72_1577)"/>
<g opacity="0.6">
<path opacity="0.4" d="M271.47 173.153C265.674 185.474 187.487 222.521 187.487 222.521C187.487 222.521 248.456 201.654 268.63 186.297C268.63 186.297 271.808 185.21 271.754 181.06C271.703 176.909 271.47 173.153 271.47 173.153Z" fill="url(#paint15_linear_72_1577)"/>
<path opacity="0.4" d="M103.975 173.153C109.774 185.474 187.958 222.521 187.958 222.521C187.958 222.521 126.989 201.654 106.815 186.297C106.815 186.297 103.64 185.21 103.691 181.06C103.745 176.909 103.975 173.153 103.975 173.153Z" fill="url(#paint16_linear_72_1577)"/>
</g>
<path opacity="0.4" d="M145.824 97.3542C145.824 97.3542 124.427 101.502 121.78 108.842C119.13 116.178 109.24 169.64 112.111 174.974C114.982 180.308 145.824 196.575 145.824 196.575V97.3542Z" fill="url(#paint17_linear_72_1577)"/>
<defs>
<linearGradient id="paint0_linear_72_1577" x1="91.9577" y1="243.082" x2="386.681" y2="110.835" gradientUnits="userSpaceOnUse">
<stop stop-color="#455A64"/>
<stop offset="1" stop-color="#455A64"/>
</linearGradient>
<linearGradient id="paint1_linear_72_1577" x1="61.2513" y1="174.65" x2="355.971" y2="42.4035" gradientUnits="userSpaceOnUse">
<stop stop-color="#A51AF4"/>
<stop offset="0.7581" stop-color="#6900BC"/>
</linearGradient>
<linearGradient id="paint2_linear_72_1577" x1="105.21" y1="272.617" x2="399.933" y2="140.37" gradientUnits="userSpaceOnUse">
<stop stop-color="#A51AF4"/>
<stop offset="0.7581" stop-color="#6900BC"/>
</linearGradient>
<linearGradient id="paint3_linear_72_1577" x1="69.9046" y1="193.938" x2="364.634" y2="61.6874" gradientUnits="userSpaceOnUse">
<stop stop-color="#A51AF4"/>
<stop offset="0.7581" stop-color="#6900BC"/>
</linearGradient>
<linearGradient id="paint4_linear_72_1577" x1="950.106" y1="92.1293" x2="-1682.7" y2="276.672" gradientUnits="userSpaceOnUse">
<stop stop-color="#9445FF"/>
<stop offset="1" stop-color="#FCD878"/>
</linearGradient>
<linearGradient id="paint5_linear_72_1577" x1="296.76" y1="274.508" x2="32.9212" y2="84.2976" gradientUnits="userSpaceOnUse">
<stop stop-color="#434955" stop-opacity="0.8"/>
<stop offset="1" stop-color="#455A64"/>
</linearGradient>
<linearGradient id="paint6_linear_72_1577" x1="1552.01" y1="61.2142" x2="-3869.04" y2="441.194" gradientUnits="userSpaceOnUse">
<stop stop-color="#263238"/>
<stop offset="1" stop-color="#FCD878"/>
</linearGradient>
<linearGradient id="paint7_linear_72_1577" x1="105.638" y1="273.599" x2="400.377" y2="141.345" gradientUnits="userSpaceOnUse">
<stop stop-color="#A51AF4"/>
<stop offset="0.7581" stop-color="#6900BC"/>
</linearGradient>
<linearGradient id="paint8_linear_72_1577" x1="204.625" y1="187.791" x2="355.788" y2="65.5537" gradientUnits="userSpaceOnUse">
<stop stop-color="#263238"/>
<stop offset="1" stop-color="#455A64"/>
</linearGradient>
<linearGradient id="paint9_linear_72_1577" x1="233.919" y1="164.102" x2="354.772" y2="66.375" gradientUnits="userSpaceOnUse">
<stop stop-color="#455A64"/>
<stop offset="0.7581" stop-color="#5E6670"/>
</linearGradient>
<linearGradient id="paint10_linear_72_1577" x1="136.549" y1="288.151" x2="249.181" y2="302.752" gradientUnits="userSpaceOnUse">
<stop stop-color="#A51AF4"/>
<stop offset="0.7581" stop-color="#6900BC"/>
</linearGradient>
<linearGradient id="paint11_linear_72_1577" x1="147.962" y1="39.7628" x2="227.484" y2="39.7628" gradientUnits="userSpaceOnUse">
<stop stop-color="#A51AF4"/>
<stop offset="0.7581" stop-color="#6900BC"/>
</linearGradient>
<linearGradient id="paint12_linear_72_1577" x1="164.262" y1="20.6642" x2="185.412" y2="40.5703" gradientUnits="userSpaceOnUse">
<stop stop-color="#E36EFF"/>
<stop offset="1" stop-color="#E36EFF" stop-opacity="0"/>
</linearGradient>
<linearGradient id="paint13_linear_72_1577" x1="186.565" y1="86.4371" x2="189.75" y2="174.636" gradientUnits="userSpaceOnUse">
<stop stop-color="#A51AF4"/>
<stop offset="0.7581" stop-color="#6900BC"/>
</linearGradient>
<linearGradient id="paint14_linear_72_1577" x1="129.726" y1="84.9595" x2="279.67" y2="260.935" gradientUnits="userSpaceOnUse">
<stop stop-color="#A51AF4"/>
<stop offset="0.7581" stop-color="#6900BC"/>
</linearGradient>
<linearGradient id="paint15_linear_72_1577" x1="223.229" y1="190.5" x2="246.939" y2="218.327" gradientUnits="userSpaceOnUse">
<stop stop-color="#A51AF4"/>
<stop offset="0.7581" stop-color="#6900BC"/>
</linearGradient>
<linearGradient id="paint16_linear_72_1577" x1="152.22" y1="190.5" x2="128.508" y2="218.327" gradientUnits="userSpaceOnUse">
<stop stop-color="#A51AF4"/>
<stop offset="0.7581" stop-color="#6900BC"/>
</linearGradient>
<linearGradient id="paint17_linear_72_1577" x1="98.5577" y1="120.39" x2="140.989" y2="144.318" gradientUnits="userSpaceOnUse">
<stop stop-color="#E36EFF"/>
<stop offset="1" stop-color="#E36EFF" stop-opacity="0"/>
</linearGradient>
</defs>
</svg>
