<svg xmlns="http://www.w3.org/2000/svg" fill-rule="evenodd" clip-rule="evenodd" image-rendering="optimizeQuality" shape-rendering="geometricPrecision" text-rendering="geometricPrecision" viewBox="0 0 16666.66 16666.66" id="searchCrowdfunder"><rect width="16666.66" height="16666.66" fill="none"></rect><polygon fill="#352a43" fill-rule="nonzero" points="2888.2 12496.63 13056.09 12496.63 13056.09 11003.65 2888.2 11003.65" class="color2c2a43 svgShape"></polygon><path fill="#e5e5e6" fill-rule="nonzero" d="M13397.26 12024.84l-10850.25 0c-344.43,0 -623.62,-279.1 -623.62,-623.5l0 -6862.26c0,-344.36 279.2,-623.62 623.62,-623.62l10850.25 0c344.4,0 623.59,279.26 623.59,623.62l0 6862.26c0,344.4 -279.2,623.5 -623.59,623.5z" class="colore5e6e5 svgShape"></path><polygon fill="#fefefe" fill-rule="nonzero" points="2480.39 11403.69 13463.9 11403.69 13463.9 4452.76 2480.39 4452.76" class="colorfefefe svgShape"></polygon><path fill="#783fc6" fill-rule="nonzero" d="M12409.34 11403.69c146.65,-453.94 226.83,-937.84 226.83,-1440.68 0,-2585.69 -2096.02,-4681.77 -4681.67,-4681.77 -2585.69,0 -4681.76,2096.08 -4681.76,4681.77 0,502.84 80.17,986.74 226.86,1440.68l8909.75 0z" class="color3fc0c6 svgShape"></path><path fill="#9445ff" fill-rule="nonzero" d="M12409.34 11403.69c146.65,-453.94 226.83,-937.84 226.83,-1440.68 0,-2585.69 -2096.02,-4681.77 -4681.67,-4681.77 -2585.69,0 -4681.76,2096.08 -4681.76,4681.77 0,502.84 80.17,986.74 226.86,1440.68l8909.75 0z" class="color268ccb svgShape"></path><path fill="#ae72ff" fill-rule="nonzero" d="M3895.85 8437.28c297.39 8.24 128.39 151.36 140.16 386.84 15.11 301.35 258.82 250.95 422.04 448.67 52.15 63.23 53.49 141.38 100.21 208.32 67.94 97.34 173.28 133.45 271.77 192.25 165.56 98.96 294.49 308.5 469.11 372.57 445.04 163.26-23.56-535.86.06-677.9 16.04-96.44 88.67-97.53 49.65-191.31-35.95-86.45-122.56-105.96-194.75-101-51.71 3.53-115.13 114.04-179.36 66.48-85.89-63.6 54.06-144.41 67.22-189.91 50.12-173-201.33-294.18-293.37-148.87-40.17 63.54 26.06 237.07-93.19 198.4-79.52-25.75-141.38-297.49-133.64-370.36 32.83-308.04 258.48-365.83 531.4-368.14 190.22-1.56 287.84 30.83 328.67 236.35 39.04 196.99-48.56 261.91 124.4 372.17 192.63 122.87 323.24 36.77 227.58-196.33-47.97-116.82-194.34-272.24-138.88-412.53 21.07-53.3 104.3-90.91 138.88-134.95 64.76-82.39 1.78-72.37 100.87-137.13 94.63-61.76 189.47-44.13 227.67-192.13 32.9-127.58-15.91-132.73 80.24-228.45 193.12-192.25 339.24 46.81 516.89-48.12-37.39-61.17-73.91-130.36-93.13-201.02 42.44-52.4 479.5-18.26 226.08-227.89 156.98-93.35 127.71 172.74 258.01 145.74 175.71-36.42-121.43-195.62-127.65-225.14-25.87-123.21 169.12-124.28 240.22-77.18 102.34 67.94 61.33 269.09 224.49 239.44 18.41 143.94 198.21 94.07 198.37-18.35.16-104.93-125.43-81.93-127.08-208.32-1.87-135.17 105.55-128.46 27.9-253.23-51.59-82.8-168-33.24-147.34-177.02-64.07-4.87-121.59 106.92-143.47 45.69-56.61-158.54-125.87-487.43-340.21-254.79-88.63-70.66-124.59-195.65-243.15-193.87-156.51 2.31-137.38 183.54-226.92 289.22-40.39 47.69-110.42 75.78-150.61 126.56-44.48 56.33 13.39 126.68-92.38 145.87-176.33 31.9-123-203.05-99.78-286.47-263.53-29.09-171.34-253.92 34.98-259.44 77.31-2.06 190.94 57.52 275.83-2.84 77.06-54.83 50.81-171.12 159.29-170.65 25.19 282.72 226.36 36.64 356.41 15.64-11.39 32.24.44 91.26-11.27 123.74 419.42 64.42 4.5-514.05 289.18-619.29 185.44-68.59 218.65 96.53 211.54 241.09-8.2 164.81.44 236.07 99.62 348.57 105.43 119.47 207.13 249.7 308.54 32.05 18.91-40.51 7.74-162.29 30.93-189.03 40.48-46.69 166.37-36.14 224.43-78.96 200.15-147.87 78.83-400.23-98.03-550.28-567.7 3.65-1111.24 108.24-1613.89 296.83-27.41 32.61-49.53 66.17-57.18 101.93-54.43 10.39-111.63 9.02-155.24-16.17-922.98 399.23-1691.32 1087.02-2192.73 1949.55.25 26.87 1.72 51.71 4.74 73.43 1.53 10.89 9.05 26.28 13.11 36.64 20.5 56.49 68.63 195.56 64.29 294.87-6.49 148.65-116.97 277.23-91.54 418.17zM12415.61 11381.31c142.25-447.54 220.65-923.64 220.65-1418.3 0-1140.64-408.34-2185.68-1086.27-2997.81-119.03-5.37-213.91 52.65-270.58 188.63-37.08 88.85-26.37 376.1-149.56 400.89-131.98 26.62-240.37-706.17-503.09-300.8-34.74 53.59-15.79 125.49-43.72 176.58-39.32 72-70.13 70.25-123.87 98.53 81.83-159.85-142.22-528.81 88.2-517.89 52.34-112.98-29.9-232.32 2.84-350.13 63.57-229.2 112.48-23.63 162.91 79.27 29.43 60.14 152.43 289.78 259.57 210.32 78.18-57.96-18.85-305.32-14.95-383.16 95.53 16.39 121.78 149.83 223.61 173.62 74.87 17.63 131.89 20.04 178.96 11.45-641.2-679.96-1482.97-1168.13-2431.52-1369 7.61 30.77 10.36 68.29.91 124.78-16.35 97.65-65.85 80.05.13 176.15 52.56 76.65 194.62 92.6 259.94 159.45 42.17 43.13 52.56 95.13 96.13 140.25 55.21 57.24 139.1 73.22 182.6 147.78 19.01 32.67 45.78 60.98 59.61 94.09-99.31 20.16-250.86-135.54-307.81-46.04-62.05 97.69 108.2 202.7 131.58 272.77 28.71 86.17-55.49 229.95 96.41 241.09 141.31 10.46 91.1-152.05 83.52-238.69 159.6-19.47 178.48 113.98 244.71 201.49 88.7 117.16 213.38 89.69 303.76 179.55 186.54 185.32-30.71 136.41-112.57 141.04-76.9 4.21-113.69-20.01-175.49 52.77-79.3 93.38-30.46 42.26 8.99 131.43 33.8 76.3 115.1 316.52 165.41 361.68 36.52 32.71 314.74 77.65 402.38 70.25-75.75 67.82-113.7 144.53-191.47 237.81-152.55 182.73-74.84 129.58-47.81 336.03 23.22 178.2-120.56 234.17-167.22 384.56-53.8 173.43 79.56 376.67 100.78 532.34 19.85 146.12 92.41 166.81 151.43 280.41 45.69 87.95 40.88 179.7 105.49 277.67 92.69 140.5 326.35 391.52 521.63 368.05 136.76-16.38 81.49-134.51 164.94-193.74 87.82-62.45 218.28 37.64 210.22-140.6 51.87 1.78 182.83 96.34 224.83 79.58 77.8-31.02 46.66-172.52 50.71-239.91 205.83-34.67 169.75 246.96 123.19 350.14-22.72 50.19-89.94 124.18-93.16 177.02-5.9 96.25 55.9 69.38 98.34 159.42 47.41 100.56-12.08 270.3-17.45 384.5-3.65 77.15-23.53 96.56-12.14 176.24 10.42 72.59 63.82 134.14 57.08 208.32-15.67 171.78-207.39 205.33-255.85 336.44-11.74 31.74-17.26 63.79-20.72 96.06l1032.84 0 10.99-22.38z" class="colorffce72 svgShape"></path><path fill="#ae72ff" fill-rule="nonzero" d="M8926.45 11355.78c76.65,-128.61 39.01,-335.81 -110.14,-397.8 -76.93,-32.05 -184.2,28.74 -259.19,-14.11 -116.38,-66.48 -53,-120.34 -194.06,-148.99 -88.51,-17.79 -170.24,25.34 -256.1,12.58 -89.85,-13.55 -183.17,-132.11 -295.3,-124.65 -173.46,-140.44 -178.36,-316.06 -295.7,-497.07 -126.83,-195.56 -204.86,-132.33 -384.13,-127.8 -176.96,4.49 -296.05,-168.68 -471.51,-208.76 -65.98,-15.11 -119.75,-7.71 -181.86,-4.31 -82.58,4.5 -101.96,13.67 -207.07,-7.15 -53.59,-10.7 -140.85,-1.56 -189.97,-16.63 -5.06,-1.56 -56.11,5.4 -73.22,1.19 -30.71,-7.46 -9.83,-82.02 -59.67,-86.33 -62.26,-5.27 -386.09,164.29 -410.24,209.89 -57.55,108.64 55.52,153.67 66.76,240.25 12.98,99.84 -25.94,111.07 -77.71,180.67 -95.75,128.83 -172.18,245.96 -179.52,415.71 -5.24,122.03 50.28,161.32 94.35,267.99 44.35,107.33 22.09,198.96 36.08,309.26 1.78,13.98 6.46,29.21 10.11,43.97l3402.9 0c11.89,-15.89 24.84,-30.56 35.2,-47.91z" class="colorffce72 svgShape"></path><path fill="#352a43" fill-rule="nonzero" d="M9822.31 5040.46c0 123.56-100.12 223.61-223.62 223.61-123.56 0-223.61-100.06-223.61-223.61 0-123.53 100.06-223.61 223.61-223.61 123.5 0 223.62 100.09 223.62 223.61zM9327.23 5264.07l0 650.81c0 93.44 120.28 169.25 268.71 169.25l5.46 0c148.37 0 268.71-75.81 268.71-169.25l0-650.81-542.89 0zM9324.52 5264.07c-125.87 0-227.92 115.5-227.92 257.85l0 322.93c0 64.94 51.06 117.59 113.98 117.59l2.31 0c62.92 0 113.98-52.65 113.98-117.59l0-580.78-2.34 0zM9870.53 5264.07l0 580.78c0 64.94 51 117.59 113.94 117.59l2.28 0c62.98 0 113.98-52.65 113.98-117.59l0-322.93c0-142.35-101.99-257.85-227.92-257.85l-2.28 0z" class="color2c2a43 svgShape"></path><path fill="#352a43" fill-rule="nonzero" d="M9327.23 6478.8c0 63.42 56.39 114.94 125.93 114.94l2.56 0c69.54 0 125.96-51.53 125.96-114.94l0-567.23-254.45 0 0 567.23zM9615.7 5911.57l0 567.23c0 63.42 56.36 114.94 125.93 114.94l2.53 0c69.54 0 125.96-51.53 125.96-114.94l0-567.23-254.42 0zM10944.12 5040.46c0 123.56-100.15 223.61-223.65 223.61-123.53 0-223.65-100.06-223.65-223.61 0-123.53 100.12-223.61 223.65-223.61 123.5 0 223.65 100.09 223.65 223.61zM10449.05 5264.07l0 650.81c0 93.44 120.28 169.25 268.71 169.25l5.43 0c148.4 0 268.74-75.81 268.74-169.25l0-650.81-542.89 0zM10446.34 5264.07c-125.87 0-227.92 115.5-227.92 257.85l0 322.93c0 64.94 51 117.59 113.98 117.59l2.31 0c62.92 0 113.98-52.65 113.98-117.59l0-580.78-2.34 0zM10992.31 5264.07l0 580.78c0 64.94 51.03 117.59 113.98 117.59l2.28 0c62.98 0 113.98-52.65 113.98-117.59l0-322.93c0-142.35-102.06-257.85-227.95-257.85l-2.28 0z" class="color2c2a43 svgShape"></path><path fill="#352a43" fill-rule="nonzero" d="M10449.05 6478.8c0 63.42 56.39 114.94 125.93 114.94l2.53 0c69.56 0 125.99-51.53 125.99-114.94l0-567.23-254.45 0 0 567.23zM10737.49 5911.57l0 567.23c0 63.42 56.4 114.94 125.93 114.94l2.56 0c69.53 0 125.96-51.53 125.96-114.94l0-567.23-254.45 0zM12065.91 5040.46c0 123.56-100.12 223.61-223.65 223.61-123.5 0-223.61-100.06-223.61-223.61 0-123.53 100.12-223.61 223.61-223.61 123.53 0 223.65 100.09 223.65 223.61zM11570.87 5264.07l0 650.81c0 93.44 120.28 169.25 268.71 169.25l5.4 0c148.43 0 268.78-75.81 268.78-169.25l0-650.81-542.89 0zM11568.15 5264.07c-125.9 0-227.95 115.5-227.95 257.85l0 322.93c0 64.94 51.03 117.59 113.98 117.59l2.28 0c62.98 0 113.98-52.65 113.98-117.59l0-580.78-2.28 0zM12114.13 5264.07l0 580.78c0 64.94 51 117.59 114.01 117.59l2.19 0c62.98 0 114.07-52.65 114.07-117.59l0-322.93c0-142.35-102.06-257.85-227.98-257.85l-2.28 0z" class="color2c2a43 svgShape"></path><path fill="#352a43" fill-rule="nonzero" d="M11570.87 6478.8c0 63.42 56.37 114.94 125.93 114.94l2.53 0c69.54 0 125.93-51.53 125.93-114.94l0-567.23-254.39 0 0 567.23zM11859.3 5911.57l0 567.23c0 63.42 56.39 114.94 125.93 114.94l2.53 0c69.57 0 125.99-51.53 125.99-114.94l0-567.23-254.45 0zM13187.76 5040.46c0 123.56-100.21 223.61-223.74 223.61-123.4 0-223.61-100.06-223.61-223.61 0-123.53 100.21-223.61 223.61-223.61 123.52 0 223.74 100.09 223.74 223.61zM12692.62 5264.07l0 650.81c0 93.44 120.34 169.25 268.78 169.25l5.37 0c148.43 0 268.78-75.81 268.78-169.25l0-650.81-542.92 0zM12690 5264.07c-125.96 0-228.02 115.5-228.02 257.85l0 322.93c0 64.94 51.06 117.59 113.94 117.59l2.31 0c62.98 0 114.07-52.65 114.07-117.59l0-580.78-2.31 0zM13235.85 5264.07l0 580.78c0 64.94 51.09 117.59 113.98 117.59l2.31 0c62.98 0 114.04-52.65 114.04-117.59l0-322.93c0-142.35-102.06-257.85-228.02-257.85l-2.31 0z" class="color2c2a43 svgShape"></path><path fill="#352a43" fill-rule="nonzero" d="M12692.62 6478.8c0 63.42 56.39 114.94 125.96 114.94l2.53 0c69.6 0 125.96-51.53 125.96-114.94l0-567.23-254.45 0 0 567.23zM12981.09 5911.57l0 567.23c0 63.42 56.36 114.94 125.96 114.94l2.53 0c69.59 0 125.96-51.53 125.96-114.94l0-567.23-254.45 0zM10176.6 6777.82c0 123.56-100.12 223.74-223.65 223.74-123.5 0-223.65-100.18-223.65-223.74 0-123.37 100.15-223.58 223.65-223.58 123.52 0 223.65 100.21 223.65 223.58zM9681.52 7001.56l0 650.71c0 93.44 120.31 169.22 268.74 169.22l5.4 0c148.43 0 268.78-75.78 268.78-169.22l0-650.71-542.92 0zM9678.84 7001.56c-125.9 0-227.95 115.38-227.95 257.88l0 322.8c0 64.95 51.03 117.66 113.98 117.66l2.28 0c62.95 0 114.01-52.71 114.01-117.66l0-580.68-2.31 0zM10224.81 7001.56l0 580.68c0 64.95 51 117.66 113.91 117.66l2.34 0c62.95 0 113.94-52.71 113.94-117.66l0-322.8c0-142.5-102.02-257.88-227.92-257.88l-2.28 0z" class="color2c2a43 svgShape"></path><path fill="#352a43" fill-rule="nonzero" d="M9681.52 8216.16c0 63.54 56.39 114.97 125.96 114.97l2.53 0c69.54 0 125.93-51.43 125.93-114.97l0-567.23-254.42 0 0 567.23zM9969.99 7648.93l0 567.23c0 63.54 56.39 114.97 125.93 114.97l2.53 0c69.57 0 125.99-51.43 125.99-114.97l0-567.23-254.45 0zM11298.41 6777.82c0 123.56-100.12 223.74-223.65 223.74-123.52 0-223.65-100.18-223.65-223.74 0-123.37 100.12-223.58 223.65-223.58 123.53 0 223.65 100.21 223.65 223.58zM10803.31 7001.56l0 650.71c0 93.44 120.34 169.22 268.71 169.22l5.46 0c148.37 0 268.71-75.78 268.71-169.22l0-650.71-542.89 0zM10800.65 7001.56c-125.96 0-227.95 115.38-227.95 257.88l0 322.8c0 64.95 51 117.66 113.91 117.66l2.34 0c62.95 0 113.98-52.71 113.98-117.66l0-580.68-2.28 0zM11346.57 7001.56l0 580.68c0 64.95 51.06 117.66 113.98 117.66l2.31 0c62.95 0 113.98-52.71 113.98-117.66l0-322.8c0-142.5-102.05-257.88-227.92-257.88l-2.34 0z" class="color2c2a43 svgShape"></path><path fill="#352a43" fill-rule="nonzero" d="M10803.31 8216.16c0 63.54 56.43 114.97 125.93 114.97l2.59 0c69.54 0 125.9-51.43 125.9-114.97l0-567.23-254.42 0 0 567.23zM11091.75 7648.93l0 567.23c0 63.54 56.39 114.97 125.99 114.97l2.53 0c69.53 0 125.93-51.43 125.93-114.97l0-567.23-254.45 0zM12420.13 6777.82c0 123.56-100.09 223.74-223.61 223.74-123.46 0-223.58-100.18-223.58-223.74 0-123.37 100.12-223.58 223.58-223.58 123.53 0 223.61 100.21 223.61 223.58zM11925.12 7001.56l0 650.71c0 93.44 120.28 169.22 268.74 169.22l5.4 0c148.43 0 268.77-75.78 268.77-169.22l0-650.71-542.92 0zM11922.41 7001.56c-125.84 0-227.95 115.38-227.95 257.88l0 322.8c0 64.95 51.06 117.66 113.98 117.66l2.31 0c62.95 0 113.98-52.71 113.98-117.66l0-580.68-2.31 0zM12468.35 7001.56l0 580.68c0 64.95 51.09 117.66 113.95 117.66l2.34 0c62.95 0 114.04-52.71 114.04-117.66l0-322.8c0-142.5-102.06-257.88-228.02-257.88l-2.31 0z" class="color2c2a43 svgShape"></path><path fill="#352a43" fill-rule="nonzero" d="M11925.12 8216.16c0 63.54 56.37 114.97 125.93 114.97l2.53 0c69.59 0 125.99-51.43 125.99-114.97l0-567.23-254.45 0 0 567.23zM12213.59 7648.93l0 567.23c0 63.54 56.37 114.97 125.96 114.97l2.53 0c69.57 0 125.96-51.43 125.96-114.97l0-567.23-254.45 0z" class="color2c2a43 svgShape"></path><path fill="#c3b0dd" fill-rule="nonzero" d="M12639.57 8168.81c-907.72,907.81 -2379.55,907.81 -3287.3,0 -907.76,-907.75 -907.76,-2379.55 0,-3287.33 907.75,-907.75 2379.58,-907.75 3287.3,0 907.75,907.78 907.75,2379.58 0,3287.33zm489.61 -3776.94c-1178.18,-1178.18 -3088.35,-1178.18 -4266.5,0 -1178.21,1178.18 -1178.21,3088.4 0,4266.59 1075.78,1075.76 2760.24,1165.95 3942.14,277.11l1977.48 1982.91c164.5,164.44 431.06,164.44 595.54,0l6.05 -6.08c164.38,-164.38 164.38,-431 0,-595.44l-1977.61 -1982.97c888.96,-1181.8 798.68,-2866.32 -277.11,-3942.11z" class="colorb0ddd3 svgShape"></path><path fill="#e5e5e6" fill-rule="nonzero" d="M7972.16 12236.69l-6812.67 0c3.62,13.98 -16.67,487.96 339.65,765.84 133.55,104.15 322.43,155.89 515.8,155.89l11914.45 0c193.34,0 382.25,-51.74 515.8,-155.89 356.29,-277.89 336.03,-751.86 339.68,-765.84l-6812.7 0z" class="colore5e6e5 svgShape"></path><path fill="#e5e5e6" fill-rule="nonzero" d="M7972.16 12236.69l-1211.36 0c0.66,3.06 -2.96,106.8 60.39,167.68 23.78,22.75 57.33,34.11 91.72,34.11l2118.49 0c34.36,0 67.94,-11.36 91.69,-34.11 63.35,-60.89 59.73,-164.63 60.36,-167.68l-1211.29 0z" class="colore5e6e5 svgShape"></path></svg>